<svg width="1584" height="396" viewBox="0 0 1584 396" fill="none" xmlns="http://www.w3.org/2000/svg">
<rect width="1584" height="396" fill="#F5F5F5"/>
<g id="Awesome banner" clip-path="url(#clip0_0_1)">
<rect width="1584" height="396" fill="url(#paint0_linear_0_1)"/>
<ellipse id="Ellipse 2" cx="323" cy="64" rx="285" ry="288" fill="url(#paint1_linear_0_1)" fill-opacity="0.1"/>
<g id="copyright">
<path d="M75.95 334.52L72.30 334.52L72.30 311.16L77.20 311.16L83.70 330.04Q83.60 329.02 83.50 327.62Q83.41 326.23 83.33 324.79Q83.25 323.35 83.25 322.23L83.25 311.16L86.90 311.16L86.90 334.52L82 334.52L75.57 315.64Q75.63 316.57 75.73 317.88Q75.82 319.19 75.89 320.57Q75.95 321.94 75.95 323.10L75.95 334.52M98.80 334.84Q96.46 334.84 94.67 333.96Q92.88 333.08 91.89 331.53Q90.90 329.98 90.90 327.93Q90.90 325.78 92.13 324.18Q93.36 322.58 95.34 322.17L95.34 322.10Q93.65 321.75 92.61 320.38Q91.57 319 91.57 317.11Q91.57 315.26 92.48 313.85Q93.39 312.44 95.02 311.64Q96.66 310.84 98.80 310.84Q100.94 310.84 102.59 311.64Q104.24 312.44 105.15 313.85Q106.06 315.26 106.06 317.11Q106.06 319 105.01 320.38Q103.95 321.75 102.26 322.10L102.26 322.17Q104.24 322.58 105.47 324.18Q106.70 325.78 106.70 327.93Q106.70 329.98 105.71 331.53Q104.72 333.08 102.93 333.96Q101.14 334.84 98.80 334.84M98.80 320.73Q100.30 320.73 101.23 319.82Q102.16 318.90 102.16 317.46Q102.16 315.99 101.23 315.08Q100.30 314.17 98.80 314.17Q97.30 314.17 96.37 315.08Q95.44 315.99 95.44 317.46Q95.44 318.90 96.37 319.82Q97.30 320.73 98.80 320.73M98.80 331.45Q100.56 331.45 101.68 330.42Q102.80 329.40 102.80 327.74Q102.80 326.04 101.68 325Q100.56 323.96 98.80 323.96Q97.04 323.96 95.92 325Q94.80 326.04 94.80 327.74Q94.80 329.40 95.92 330.42Q97.04 331.45 98.80 331.45M114.35 334.52L110.70 334.52L110.70 311.16L115.60 311.16L122.10 330.04Q122 329.02 121.90 327.62Q121.81 326.23 121.73 324.79Q121.65 323.35 121.65 322.23L121.65 311.16L125.30 311.16L125.30 334.52L120.40 334.52L113.97 315.64Q114.03 316.57 114.13 317.88Q114.22 319.19 114.29 320.57Q114.35 321.94 114.35 323.10" fill="white" fill-opacity="0.9"/>
<path d="M161.48 325.24L151.24 325.24L151.24 322.68L161.48 322.68" fill="white" fill-opacity="0.9"/>
<path d="M195.02 334.84Q191.82 334.84 189.96 333.05Q188.11 331.26 188.11 328.12L188.11 317.56Q188.11 314.42 189.96 312.63Q191.82 310.84 195.02 310.84Q198.15 310.84 200.01 312.65Q201.87 314.46 201.87 317.56L198.99 317.56Q198.99 315.58 197.95 314.50Q196.91 313.43 195.02 313.43Q193.13 313.43 192.06 314.50Q190.99 315.58 190.99 317.56L190.99 328.12Q190.99 330.10 192.06 331.18Q193.13 332.25 195.02 332.25Q196.91 332.25 197.95 331.18Q198.99 330.10 198.99 328.12L201.87 328.12Q201.87 331.22 200.01 333.03Q198.15 334.84 195.02 334.84" fill="white" fill-opacity="0.9"/>
<path d="M213.96 334.84Q210.83 334.84 209 333.02Q207.18 331.19 207.18 327.80L207.18 317.88Q207.18 314.49 209 312.66Q210.83 310.84 213.96 310.84Q217.10 310.84 218.92 312.66Q220.75 314.49 220.75 317.85L220.75 327.80Q220.75 331.19 218.92 333.02Q217.10 334.84 213.96 334.84M213.96 332.25Q215.85 332.25 216.86 331.18Q217.87 330.10 217.87 328.12L217.87 317.56Q217.87 315.58 216.86 314.50Q215.85 313.43 213.96 313.43Q212.11 313.43 211.08 314.50Q210.06 315.58 210.06 317.56L210.06 328.12Q210.06 330.10 211.08 331.18Q212.11 332.25 213.96 332.25" fill="white" fill-opacity="0.9"/>
<path d="M228.65 334.52L225.87 334.52L225.87 311.16L230.12 311.16L233.10 321.27L236.20 311.16L240.46 311.16L240.46 334.52L237.67 334.52L237.67 323.48Q237.67 321.91 237.72 319.88Q237.77 317.85 237.87 315.77Q237.96 313.69 238.09 312.02L234.31 324.09L231.82 324.09L228.20 312.31Q228.46 314.68 228.55 317.50Q228.65 320.31 228.65 323.48" fill="white" fill-opacity="0.9"/>
<path d="M247.85 334.52L245.07 334.52L245.07 311.16L249.32 311.16L252.30 321.27L255.40 311.16L259.66 311.16L259.66 334.52L256.87 334.52L256.87 323.48Q256.87 321.91 256.92 319.88Q256.97 317.85 257.07 315.77Q257.16 313.69 257.29 312.02L253.51 324.09L251.02 324.09L247.40 312.31Q247.66 314.68 247.75 317.50Q247.85 320.31 247.85 323.48" fill="white" fill-opacity="0.9"/>
<path d="M271.56 334.84Q268.30 334.84 266.57 333.03Q264.84 331.22 264.84 328.12L264.84 311.16L267.72 311.16L267.72 328.12Q267.72 330.04 268.67 331.16Q269.61 332.28 271.56 332.28Q273.48 332.28 274.44 331.16Q275.40 330.04 275.40 328.12L275.40 311.16L278.28 311.16L278.28 328.12Q278.28 331.26 276.57 333.05Q274.86 334.84 271.56 334.84" fill="white" fill-opacity="0.9"/>
<path d="M286.83 334.52L284.04 334.52L284.04 311.16L287.88 311.16L295.02 331.16Q294.95 330.36 294.87 329.19Q294.79 328.02 294.75 326.73Q294.70 325.43 294.70 324.28L294.70 311.16L297.48 311.16L297.48 334.52L293.64 334.52L286.54 314.52Q286.60 315.29 286.67 316.46Q286.73 317.62 286.78 318.92Q286.83 320.22 286.83 321.40" fill="white" fill-opacity="0.9"/>
<path d="M316.20 334.52L303.72 334.52L303.72 331.90L308.49 331.90L308.49 313.78L303.72 313.78L303.72 311.16L316.20 311.16L316.20 313.78L311.43 313.78L311.43 331.90L316.20 331.90" fill="white" fill-opacity="0.9"/>
<path d="M330.60 334.52L327.72 334.52L327.72 313.78L321.32 313.78L321.32 311.16L337 311.16L337 313.78L330.60 313.78" fill="white" fill-opacity="0.9"/>
<path d="M349.80 334.52L346.92 334.52L346.92 325.78L339.88 311.16L342.95 311.16L347.50 320.76Q347.88 321.56 348.11 322.12Q348.33 322.68 348.39 322.94Q348.46 322.68 348.70 322.12Q348.94 321.56 349.32 320.76L353.87 311.16L356.84 311.16L349.80 325.78" fill="white" fill-opacity="0.9"/>
<path d="M382.83 334.52L380.04 334.52L380.04 311.16L383.88 311.16L391.02 331.16Q390.95 330.36 390.87 329.19Q390.79 328.02 390.75 326.73Q390.70 325.43 390.70 324.28L390.70 311.16L393.48 311.16L393.48 334.52L389.64 334.52L382.54 314.52Q382.60 315.29 382.67 316.46Q382.73 317.62 382.78 318.92Q382.83 320.22 382.83 321.40" fill="white" fill-opacity="0.9"/>
<path d="M405.96 334.84Q402.83 334.84 401 333.02Q399.18 331.19 399.18 327.80L399.18 317.88Q399.18 314.49 401 312.66Q402.83 310.84 405.96 310.84Q409.10 310.84 410.92 312.66Q412.75 314.49 412.75 317.85L412.75 327.80Q412.75 331.19 410.92 333.02Q409.10 334.84 405.96 334.84M405.96 332.25Q407.85 332.25 408.86 331.18Q409.87 330.10 409.87 328.12L409.87 317.56Q409.87 315.58 408.86 314.50Q407.85 313.43 405.96 313.43Q404.11 313.43 403.08 314.50Q402.06 315.58 402.06 317.56L402.06 328.12Q402.06 330.10 403.08 331.18Q404.11 332.25 405.96 332.25" fill="white" fill-opacity="0.9"/>
<path d="M424.55 334.52L418.51 334.52L418.51 311.16L424.55 311.16Q426.83 311.16 428.47 312.02Q430.12 312.89 431.03 314.46Q431.95 316.02 431.95 318.17L431.95 327.48Q431.95 329.62 431.03 331.21Q430.12 332.79 428.47 333.66Q426.83 334.52 424.55 334.52M421.39 313.72L421.39 331.96L424.55 331.96Q426.67 331.96 427.87 330.78Q429.07 329.59 429.07 327.48L429.07 318.17Q429.07 316.09 427.87 314.90Q426.67 313.72 424.55 313.72" fill="white" fill-opacity="0.9"/>
<path d="M451.40 334.52L437.96 334.52L437.96 311.16L451.40 311.16L451.40 313.78L440.81 313.78L440.81 321.02L450.28 321.02L450.28 323.58L440.81 323.58L440.81 331.90L451.40 331.90" fill="white" fill-opacity="0.9"/>
<path d="M463.69 334.84Q460.30 334.84 458.28 333.05Q456.27 331.26 456.27 328.12L459.15 328.12Q459.15 330.07 460.39 331.18Q461.64 332.28 463.69 332.28Q465.67 332.28 466.86 331.13Q468.04 329.98 468.04 328.12Q468.04 326.71 467.29 325.67Q466.54 324.63 465.13 324.25L461.58 323.26Q459.37 322.62 458.11 320.97Q456.84 319.32 456.84 317.08Q456.84 315.22 457.67 313.82Q458.51 312.41 460.01 311.62Q461.51 310.84 463.47 310.84Q465.45 310.84 466.97 311.62Q468.49 312.41 469.35 313.80Q470.22 315.19 470.22 317.02L467.34 317.02Q467.34 315.42 466.25 314.41Q465.16 313.40 463.47 313.40Q461.77 313.40 460.71 314.41Q459.66 315.42 459.66 317.02Q459.66 318.30 460.35 319.21Q461.03 320.12 462.28 320.47L465.93 321.50Q468.27 322.14 469.56 323.91Q470.86 325.69 470.86 328.12Q470.86 331.19 468.91 333.02Q466.95 334.84 463.69 334.84" fill="white" fill-opacity="0.9"/>
</g>
<path d="M77.30 197.88Q74.90 197.88 73.50 196.54Q72.11 195.19 72.11 192.84L72.11 184.92Q72.11 182.57 73.50 181.22Q74.90 179.88 77.30 179.88Q79.65 179.88 81.04 181.24Q82.43 182.59 82.43 184.92L80.27 184.92Q80.27 183.43 79.49 182.63Q78.71 181.82 77.30 181.82Q75.88 181.82 75.08 182.62Q74.27 183.41 74.27 184.90L74.27 192.84Q74.27 194.33 75.08 195.14Q75.88 195.96 77.30 195.96Q78.71 195.96 79.49 195.14Q80.27 194.33 80.27 192.84L80.27 190.44L76.72 190.44L76.72 188.47L82.43 188.47L82.43 192.84Q82.43 195.17 81.04 196.52Q79.65 197.88 77.30 197.88" fill="white" fill-opacity="0.7"/>
<path d="M88.22 197.64L86.13 197.64L86.13 180.12L89.32 180.12L91.55 187.70L93.88 180.12L97.07 180.12L97.07 197.64L94.98 197.64L94.98 189.36Q94.98 188.18 95.02 186.66Q95.06 185.14 95.13 183.58Q95.20 182.02 95.30 180.77L92.46 189.82L90.59 189.82L87.88 180.98Q88.07 182.76 88.14 184.87Q88.22 186.98 88.22 189.36" fill="white" fill-opacity="0.7"/>
<path d="M106.19 197.88Q103.79 197.88 102.40 196.54Q101.01 195.19 101.01 192.84L101.01 184.92Q101.01 182.57 102.40 181.22Q103.79 179.88 106.19 179.88Q108.54 179.88 109.94 181.24Q111.33 182.59 111.33 184.92L109.17 184.92Q109.17 183.43 108.39 182.63Q107.61 181.82 106.19 181.82Q104.78 181.82 103.97 182.63Q103.17 183.43 103.17 184.92L103.17 192.84Q103.17 194.33 103.97 195.13Q104.78 195.94 106.19 195.94Q107.61 195.94 108.39 195.13Q109.17 194.33 109.17 192.84L111.33 192.84Q111.33 195.17 109.94 196.52Q108.54 197.88 106.19 197.88" fill="white" fill-opacity="0.7"/>
<path d="M117.59 197.64L115.43 197.64L115.43 180.12L117.59 180.12L117.59 187.61L123.21 187.61L123.21 180.12L125.37 180.12L125.37 197.64L123.21 197.64L123.21 189.58L117.59 189.58" fill="white" fill-opacity="0.7"/>
<path d="M149.39 197.88Q146.99 197.88 145.60 196.54Q144.21 195.19 144.21 192.84L144.21 184.92Q144.21 182.57 145.60 181.22Q146.99 179.88 149.39 179.88Q151.74 179.88 153.14 181.24Q154.53 182.59 154.53 184.92L152.37 184.92Q152.37 183.43 151.59 182.63Q150.81 181.82 149.39 181.82Q147.98 181.82 147.17 182.63Q146.37 183.43 146.37 184.92L146.37 192.84Q146.37 194.33 147.17 195.13Q147.98 195.94 149.39 195.94Q150.81 195.94 151.59 195.13Q152.37 194.33 152.37 192.84L154.53 192.84Q154.53 195.17 153.14 196.52Q151.74 197.88 149.39 197.88" fill="white" fill-opacity="0.7"/>
<path d="M160.77 197.64L158.61 197.64L158.61 180.12L160.77 180.12L160.77 186.96L160.79 186.96Q160.96 185.64 161.87 184.92Q162.78 184.20 164.30 184.20Q166.29 184.20 167.46 185.42Q168.64 186.65 168.64 188.76L168.64 197.64L166.48 197.64L166.48 189.12Q166.48 187.63 165.72 186.83Q164.97 186.02 163.67 186.02Q162.33 186.02 161.55 186.86Q160.77 187.70 160.77 189.24" fill="white" fill-opacity="0.7"/>
<path d="M176.85 197.88Q174.81 197.88 173.61 196.74Q172.41 195.60 172.41 193.75Q172.41 192.53 172.96 191.62Q173.51 190.70 174.50 190.19Q175.48 189.67 176.75 189.67L180.83 189.67L180.83 188.64Q180.83 186.07 178.02 186.07Q176.78 186.07 176.01 186.53Q175.24 186.98 175.19 187.80L173.03 187.80Q173.15 186.24 174.48 185.22Q175.82 184.20 178.02 184.20Q180.42 184.20 181.71 185.35Q182.99 186.50 182.99 188.57L182.99 197.64L180.86 197.64L180.86 195.24L180.81 195.24Q180.62 196.46 179.58 197.17Q178.55 197.88 176.85 197.88M177.38 196.06Q178.96 196.06 179.90 195.29Q180.83 194.52 180.83 193.20L180.83 191.35L176.99 191.35Q175.94 191.35 175.28 191.99Q174.62 192.62 174.62 193.68Q174.62 194.78 175.35 195.42Q176.08 196.06 177.38 196.06" fill="white" fill-opacity="0.7"/>
<path d="M189.57 197.64L187.41 197.64L187.41 184.44L189.57 184.44L189.57 186.96L189.59 186.96Q189.76 185.64 190.67 184.92Q191.58 184.20 193.10 184.20Q195.09 184.20 196.26 185.42Q197.44 186.65 197.44 188.76L197.44 197.64L195.28 197.64L195.28 189.14Q195.28 187.63 194.52 186.83Q193.77 186.02 192.47 186.02Q191.13 186.02 190.35 186.86Q189.57 187.70 189.57 189.24" fill="white" fill-opacity="0.7"/>
<path d="M206.03 197.88Q204.06 197.88 202.88 196.56Q201.69 195.24 201.69 192.98L201.69 189.12Q201.69 186.84 202.86 185.52Q204.04 184.20 206.03 184.20Q207.52 184.20 208.49 184.94Q209.46 185.69 209.66 186.96L209.68 186.96L209.63 183.96L209.63 180.12L211.79 180.12L211.79 197.64L209.63 197.64L209.63 195.12L209.61 195.12Q209.44 196.42 208.48 197.15Q207.52 197.88 206.03 197.88M206.75 196.01Q208.10 196.01 208.86 195.17Q209.63 194.33 209.63 192.84L209.63 189.24Q209.63 187.75 208.86 186.91Q208.10 186.07 206.75 186.07Q205.38 186.07 204.62 186.78Q203.85 187.49 203.85 189.12L203.85 192.96Q203.85 194.57 204.62 195.29Q205.38 196.01 206.75 196.01" fill="white" fill-opacity="0.7"/>
<path d="M227.32 197.64L216.04 197.64L216.04 195.67L220.72 195.67L220.72 186.41L216.52 186.41L216.52 184.44L222.88 184.44L222.88 195.67L227.32 195.67L227.32 197.64M221.56 182.06Q220.77 182.06 220.31 181.66Q219.86 181.25 219.86 180.55Q219.86 179.83 220.31 179.41Q220.77 178.99 221.56 178.99Q222.35 178.99 222.81 179.41Q223.26 179.83 223.26 180.55Q223.26 181.25 222.81 181.66Q222.35 182.06 221.56 182.06" fill="white" fill-opacity="0.7"/>
<path d="M235.96 201.96L232.26 201.96L232.26 199.99L235.98 199.99Q237.11 199.99 237.76 199.36Q238.41 198.72 238.41 197.64L238.41 196.44L238.46 194.28L238.38 194.28Q238.19 195.46 237.26 196.09Q236.32 196.73 234.90 196.73Q232.86 196.73 231.69 195.43Q230.51 194.14 230.51 191.88L230.51 189.10Q230.51 186.84 231.69 185.52Q232.86 184.20 234.90 184.20Q236.32 184.20 237.26 184.87Q238.19 185.54 238.38 186.72L238.43 186.72L238.43 184.44L240.57 184.44L240.57 197.64Q240.57 199.63 239.33 200.80Q238.10 201.96 235.96 201.96M235.55 194.93Q236.90 194.93 237.66 194.09Q238.43 193.25 238.43 191.76L238.43 189.24Q238.43 187.75 237.66 186.91Q236.90 186.07 235.55 186.07Q234.18 186.07 233.43 186.86Q232.67 187.66 232.67 189L232.67 192Q232.67 193.34 233.43 194.14Q234.18 194.93 235.55 194.93" fill="white" fill-opacity="0.7"/>
<path d="M248.85 197.88Q246.81 197.88 245.61 196.74Q244.41 195.60 244.41 193.75Q244.41 192.53 244.96 191.62Q245.51 190.70 246.50 190.19Q247.48 189.67 248.75 189.67L252.83 189.67L252.83 188.64Q252.83 186.07 250.02 186.07Q248.78 186.07 248.01 186.53Q247.24 186.98 247.19 187.80L245.03 187.80Q245.15 186.24 246.48 185.22Q247.82 184.20 250.02 184.20Q252.42 184.20 253.71 185.35Q254.99 186.50 254.99 188.57L254.99 197.64L252.86 197.64L252.86 195.24L252.81 195.24Q252.62 196.46 251.58 197.17Q250.55 197.88 248.85 197.88M249.38 196.06Q250.96 196.06 251.90 195.29Q252.83 194.52 252.83 193.20L252.83 191.35L248.99 191.35Q247.94 191.35 247.28 191.99Q246.62 192.62 246.62 193.68Q246.62 194.78 247.35 195.42Q248.08 196.06 249.38 196.06" fill="white" fill-opacity="0.7"/>
<path d="M262.05 197.64L259.89 197.64L259.89 184.44L262.05 184.44L262.05 186.96L262.10 186.96Q262.26 185.69 263.18 184.94Q264.09 184.20 265.62 184.20Q267.69 184.20 268.80 185.44Q269.92 186.67 269.92 188.95L269.92 190.08L267.76 190.08L267.76 188.95Q267.76 186.07 264.95 186.07Q263.54 186.07 262.79 186.89Q262.05 187.70 262.05 189.24" fill="white" fill-opacity="0.7"/>
<path d="M275.97 197.64L273.81 197.64L273.81 180.12L275.97 180.12L275.97 186.96L275.99 186.96Q276.16 185.64 277.07 184.92Q277.98 184.20 279.50 184.20Q281.49 184.20 282.66 185.42Q283.84 186.65 283.84 188.76L283.84 197.64L281.68 197.64L281.68 189.12Q281.68 187.63 280.92 186.83Q280.17 186.02 278.87 186.02Q277.53 186.02 276.75 186.86Q275.97 187.70 275.97 189.24" fill="white" fill-opacity="0.7"/>
<path d="M304.77 201.96L302.61 201.96L302.61 184.44L304.77 184.44L304.77 186.96L304.79 186.96Q304.96 185.66 305.92 184.93Q306.88 184.20 308.37 184.20Q310.36 184.20 311.54 185.51Q312.71 186.82 312.71 189.10L312.71 192.96Q312.71 195.24 311.54 196.56Q310.36 197.88 308.37 197.88Q306.88 197.88 305.92 197.14Q304.96 196.39 304.79 195.12L304.72 195.12L304.77 198.12L304.77 201.96M307.65 196.01Q309.02 196.01 309.78 195.29Q310.55 194.57 310.55 192.96L310.55 189.12Q310.55 187.49 309.78 186.78Q309.02 186.07 307.65 186.07Q306.33 186.07 305.55 186.91Q304.77 187.75 304.77 189.24L304.77 192.84Q304.77 194.33 305.55 195.17Q306.33 196.01 307.65 196.01" fill="white" fill-opacity="0.7"/>
<path d="M319.65 197.64L317.49 197.64L317.49 184.44L319.65 184.44L319.65 186.96L319.70 186.96Q319.86 185.69 320.78 184.94Q321.69 184.20 323.22 184.20Q325.29 184.20 326.40 185.44Q327.52 186.67 327.52 188.95L327.52 190.08L325.36 190.08L325.36 188.95Q325.36 186.07 322.55 186.07Q321.14 186.07 320.39 186.89Q319.65 187.70 319.65 189.24" fill="white" fill-opacity="0.7"/>
<path d="M336.40 197.83Q334.02 197.83 332.62 196.44Q331.22 195.05 331.22 192.55L331.22 189.53Q331.22 187.01 332.61 185.63Q334 184.25 336.40 184.25Q338.80 184.25 340.19 185.63Q341.58 187.01 341.58 189.53L341.58 192.55Q341.58 195.05 340.18 196.44Q338.78 197.83 336.40 197.83M336.40 195.91Q337.82 195.91 338.62 195.12Q339.42 194.33 339.42 192.79L339.42 189.29Q339.42 187.75 338.62 186.96Q337.82 186.17 336.40 186.17Q335.01 186.17 334.19 186.96Q333.38 187.75 333.38 189.29L333.38 192.79Q333.38 194.33 334.19 195.12Q335.01 195.91 336.40 195.91" fill="white" fill-opacity="0.7"/>
<path d="M352.22 197.64L349.38 197.64L344.90 184.44L347.22 184.44L350.10 193.32Q350.37 194.11 350.56 194.84Q350.75 195.58 350.85 195.98Q350.97 195.58 351.14 194.84Q351.30 194.11 351.54 193.32L354.42 184.44L356.70 184.44" fill="white" fill-opacity="0.7"/>
<path d="M371.32 197.64L360.04 197.64L360.04 195.67L364.72 195.67L364.72 186.41L360.52 186.41L360.52 184.44L366.88 184.44L366.88 195.67L371.32 195.67L371.32 197.64M365.56 182.06Q364.77 182.06 364.31 181.66Q363.86 181.25 363.86 180.55Q363.86 179.83 364.31 179.41Q364.77 178.99 365.56 178.99Q366.35 178.99 366.81 179.41Q367.26 179.83 367.26 180.55Q367.26 181.25 366.81 181.66Q366.35 182.06 365.56 182.06" fill="white" fill-opacity="0.7"/>
<path d="M378.83 197.88Q376.86 197.88 375.68 196.56Q374.49 195.24 374.49 192.98L374.49 189.12Q374.49 186.84 375.66 185.52Q376.84 184.20 378.83 184.20Q380.32 184.20 381.29 184.94Q382.26 185.69 382.46 186.96L382.48 186.96L382.43 183.96L382.43 180.12L384.59 180.12L384.59 197.64L382.43 197.64L382.43 195.12L382.41 195.12Q382.24 196.42 381.28 197.15Q380.32 197.88 378.83 197.88M379.55 196.01Q380.90 196.01 381.66 195.17Q382.43 194.33 382.43 192.84L382.43 189.24Q382.43 187.75 381.66 186.91Q380.90 186.07 379.55 186.07Q378.18 186.07 377.42 186.78Q376.65 187.49 376.65 189.12L376.65 192.96Q376.65 194.57 377.42 195.29Q378.18 196.01 379.55 196.01" fill="white" fill-opacity="0.7"/>
<path d="M394 197.88Q391.67 197.88 390.24 196.48Q388.82 195.07 388.82 192.60L388.82 189.48Q388.82 187.01 390.24 185.60Q391.67 184.20 394 184.20Q395.56 184.20 396.72 184.82Q397.89 185.45 398.54 186.58Q399.18 187.70 399.18 189.24L399.18 191.59L390.93 191.59L390.93 192.84Q390.93 194.30 391.77 195.16Q392.61 196.01 394 196.01Q395.20 196.01 395.98 195.54Q396.76 195.07 396.93 194.28L399.09 194.28Q398.87 195.94 397.48 196.91Q396.09 197.88 394 197.88M390.93 189.24L390.93 189.91L397.07 189.91L397.07 189.24Q397.07 187.68 396.27 186.83Q395.46 185.98 394 185.98Q392.54 185.98 391.73 186.83Q390.93 187.68 390.93 189.24" fill="white" fill-opacity="0.7"/>
<path d="M408.93 197.83L407.87 197.83Q405.66 197.83 404.45 196.84Q403.24 195.84 403.24 194.02L405.40 194.02Q405.40 194.93 406.05 195.44Q406.70 195.96 407.87 195.96L408.93 195.96Q410.13 195.96 410.79 195.43Q411.45 194.90 411.45 193.94Q411.45 192.24 409.89 192.02L406.24 191.50Q404.90 191.30 404.15 190.38Q403.41 189.46 403.41 187.94Q403.41 186.22 404.60 185.23Q405.78 184.25 407.87 184.25L408.93 184.25Q410.85 184.25 412.06 185.20Q413.27 186.14 413.37 187.68L411.18 187.68Q411.14 186.98 410.52 186.53Q409.91 186.07 408.93 186.07L407.87 186.07Q406.77 186.07 406.14 186.58Q405.52 187.08 405.52 187.94Q405.52 189.34 406.79 189.53L410.20 190.01Q413.56 190.49 413.56 193.94Q413.56 195.79 412.35 196.81Q411.14 197.83 408.93 197.83" fill="white" fill-opacity="0.7"/>
<path d="M437.39 197.88Q434.99 197.88 433.55 196.54Q432.11 195.19 432.11 192.84L432.11 189.24Q432.11 186.89 433.55 185.54Q434.99 184.20 437.39 184.20Q439.67 184.20 441.08 185.42Q442.48 186.65 442.55 188.76L440.39 188.76Q440.32 187.49 439.53 186.80Q438.74 186.12 437.39 186.12Q435.98 186.12 435.12 186.92Q434.27 187.73 434.27 189.22L434.27 192.84Q434.27 194.33 435.12 195.14Q435.98 195.96 437.39 195.96Q438.74 195.96 439.53 195.26Q440.32 194.57 440.39 193.32L442.55 193.32Q442.48 195.43 441.08 196.66Q439.67 197.88 437.39 197.88" fill="white" fill-opacity="0.7"/>
<path d="M457.60 197.64L453.52 197.64Q451.77 197.64 450.72 196.62Q449.68 195.60 449.68 193.92L449.68 182.09L445.12 182.09L445.12 180.12L451.84 180.12L451.84 193.92Q451.84 194.74 452.30 195.20Q452.75 195.67 453.52 195.67L457.60 195.67" fill="white" fill-opacity="0.7"/>
<path d="M472.12 197.64L460.84 197.64L460.84 195.67L465.52 195.67L465.52 186.41L461.32 186.41L461.32 184.44L467.68 184.44L467.68 195.67L472.12 195.67L472.12 197.64M466.36 182.06Q465.57 182.06 465.11 181.66Q464.66 181.25 464.66 180.55Q464.66 179.83 465.11 179.41Q465.57 178.99 466.36 178.99Q467.15 178.99 467.61 179.41Q468.06 179.83 468.06 180.55Q468.06 181.25 467.61 181.66Q467.15 182.06 466.36 182.06" fill="white" fill-opacity="0.7"/>
<path d="M477.57 197.64L475.41 197.64L475.41 184.44L477.57 184.44L477.57 186.96L477.59 186.96Q477.76 185.64 478.67 184.92Q479.58 184.20 481.10 184.20Q483.09 184.20 484.26 185.42Q485.44 186.65 485.44 188.76L485.44 197.64L483.28 197.64L483.28 189.14Q483.28 187.63 482.52 186.83Q481.77 186.02 480.47 186.02Q479.13 186.02 478.35 186.86Q477.57 187.70 477.57 189.24" fill="white" fill-opacity="0.7"/>
<path d="M500.92 197.64L489.64 197.64L489.64 195.67L494.32 195.67L494.32 186.41L490.12 186.41L490.12 184.44L496.48 184.44L496.48 195.67L500.92 195.67L500.92 197.64M495.16 182.06Q494.37 182.06 493.91 181.66Q493.46 181.25 493.46 180.55Q493.46 179.83 493.91 179.41Q494.37 178.99 495.16 178.99Q495.95 178.99 496.41 179.41Q496.86 179.83 496.86 180.55Q496.86 181.25 496.41 181.66Q495.95 182.06 495.16 182.06" fill="white" fill-opacity="0.7"/>
<path d="M509.39 197.88Q506.99 197.88 505.55 196.54Q504.11 195.19 504.11 192.84L504.11 189.24Q504.11 186.89 505.55 185.54Q506.99 184.20 509.39 184.20Q511.67 184.20 513.08 185.42Q514.48 186.65 514.55 188.76L512.39 188.76Q512.32 187.49 511.53 186.80Q510.74 186.12 509.39 186.12Q507.98 186.12 507.12 186.92Q506.27 187.73 506.27 189.22L506.27 192.84Q506.27 194.33 507.12 195.14Q507.98 195.96 509.39 195.96Q510.74 195.96 511.53 195.26Q512.32 194.57 512.39 193.32L514.55 193.32Q514.48 195.43 513.08 196.66Q511.67 197.88 509.39 197.88" fill="white" fill-opacity="0.7"/>
<path d="M522.45 197.88Q520.41 197.88 519.21 196.74Q518.01 195.60 518.01 193.75Q518.01 192.53 518.56 191.62Q519.11 190.70 520.10 190.19Q521.08 189.67 522.35 189.67L526.43 189.67L526.43 188.64Q526.43 186.07 523.62 186.07Q522.38 186.07 521.61 186.53Q520.84 186.98 520.79 187.80L518.63 187.80Q518.75 186.24 520.08 185.22Q521.42 184.20 523.62 184.20Q526.02 184.20 527.31 185.35Q528.59 186.50 528.59 188.57L528.59 197.64L526.46 197.64L526.46 195.24L526.41 195.24Q526.22 196.46 525.18 197.17Q524.15 197.88 522.45 197.88M522.98 196.06Q524.56 196.06 525.50 195.29Q526.43 194.52 526.43 193.20L526.43 191.35L522.59 191.35Q521.54 191.35 520.88 191.99Q520.22 192.62 520.22 193.68Q520.22 194.78 520.95 195.42Q521.68 196.06 522.98 196.06" fill="white" fill-opacity="0.7"/>
<path d="M544 197.64L539.92 197.64Q538.17 197.64 537.12 196.62Q536.08 195.60 536.08 193.92L536.08 182.09L531.52 182.09L531.52 180.12L538.24 180.12L538.24 193.92Q538.24 194.74 538.70 195.20Q539.15 195.67 539.92 195.67L544 195.67" fill="white" fill-opacity="0.7"/>
<path d="M572.80 197.64L568.72 197.64Q566.97 197.64 565.92 196.62Q564.88 195.60 564.88 193.92L564.88 182.09L560.32 182.09L560.32 180.12L567.04 180.12L567.04 193.92Q567.04 194.74 567.50 195.20Q567.95 195.67 568.72 195.67L572.80 195.67" fill="white" fill-opacity="0.7"/>
<path d="M580.05 197.88Q578.01 197.88 576.81 196.74Q575.61 195.60 575.61 193.75Q575.61 192.53 576.16 191.62Q576.71 190.70 577.70 190.19Q578.68 189.67 579.95 189.67L584.03 189.67L584.03 188.64Q584.03 186.07 581.22 186.07Q579.98 186.07 579.21 186.53Q578.44 186.98 578.39 187.80L576.23 187.80Q576.35 186.24 577.68 185.22Q579.02 184.20 581.22 184.20Q583.62 184.20 584.91 185.35Q586.19 186.50 586.19 188.57L586.19 197.64L584.06 197.64L584.06 195.24L584.01 195.24Q583.82 196.46 582.78 197.17Q581.75 197.88 580.05 197.88M580.58 196.06Q582.16 196.06 583.10 195.29Q584.03 194.52 584.03 193.20L584.03 191.35L580.19 191.35Q579.14 191.35 578.48 191.99Q577.82 192.62 577.82 193.68Q577.82 194.78 578.55 195.42Q579.28 196.06 580.58 196.06" fill="white" fill-opacity="0.7"/>
<path d="M596.37 197.88Q594.88 197.88 593.92 197.15Q592.96 196.42 592.79 195.12L592.77 195.12L592.77 197.64L590.61 197.64L590.61 180.12L592.77 180.12L592.77 183.96L592.72 186.96L592.74 186.96Q592.94 185.69 593.91 184.94Q594.88 184.20 596.37 184.20Q598.36 184.20 599.54 185.52Q600.71 186.84 600.71 189.12L600.71 192.98Q600.71 195.24 599.54 196.56Q598.36 197.88 596.37 197.88M595.65 196.01Q597.02 196.01 597.78 195.29Q598.55 194.57 598.55 192.96L598.55 189.12Q598.55 187.49 597.78 186.78Q597.02 186.07 595.65 186.07Q594.33 186.07 593.55 186.91Q592.77 187.75 592.77 189.24L592.77 192.84Q592.77 194.33 593.55 195.17Q594.33 196.01 595.65 196.01" fill="white" fill-opacity="0.7"/>
<path d="M622.05 197.64L619.89 197.64L619.89 184.44L622.05 184.44L622.05 186.96L622.10 186.96Q622.26 185.69 623.18 184.94Q624.09 184.20 625.62 184.20Q627.69 184.20 628.80 185.44Q629.92 186.67 629.92 188.95L629.92 190.08L627.76 190.08L627.76 188.95Q627.76 186.07 624.95 186.07Q623.54 186.07 622.79 186.89Q622.05 187.70 622.05 189.24" fill="white" fill-opacity="0.7"/>
<path d="M638.80 197.88Q636.47 197.88 635.04 196.48Q633.62 195.07 633.62 192.60L633.62 189.48Q633.62 187.01 635.04 185.60Q636.47 184.20 638.80 184.20Q640.36 184.20 641.52 184.82Q642.69 185.45 643.34 186.58Q643.98 187.70 643.98 189.24L643.98 191.59L635.73 191.59L635.73 192.84Q635.73 194.30 636.57 195.16Q637.41 196.01 638.80 196.01Q640 196.01 640.78 195.54Q641.56 195.07 641.73 194.28L643.89 194.28Q643.67 195.94 642.28 196.91Q640.89 197.88 638.80 197.88M635.73 189.24L635.73 189.91L641.87 189.91L641.87 189.24Q641.87 187.68 641.07 186.83Q640.26 185.98 638.80 185.98Q637.34 185.98 636.53 186.83Q635.73 187.68 635.73 189.24" fill="white" fill-opacity="0.7"/>
<path d="M650.37 201.96L648.21 201.96L648.21 184.44L650.37 184.44L650.37 186.96L650.39 186.96Q650.56 185.66 651.52 184.93Q652.48 184.20 653.97 184.20Q655.96 184.20 657.14 185.51Q658.31 186.82 658.31 189.10L658.31 192.96Q658.31 195.24 657.14 196.56Q655.96 197.88 653.97 197.88Q652.48 197.88 651.52 197.14Q650.56 196.39 650.39 195.12L650.32 195.12L650.37 198.12L650.37 201.96M653.25 196.01Q654.62 196.01 655.38 195.29Q656.15 194.57 656.15 192.96L656.15 189.12Q656.15 187.49 655.38 186.78Q654.62 186.07 653.25 186.07Q651.93 186.07 651.15 186.91Q650.37 187.75 650.37 189.24L650.37 192.84Q650.37 194.33 651.15 195.17Q651.93 196.01 653.25 196.01" fill="white" fill-opacity="0.7"/>
<path d="M667.60 197.83Q665.22 197.83 663.82 196.44Q662.42 195.05 662.42 192.55L662.42 189.53Q662.42 187.01 663.81 185.63Q665.20 184.25 667.60 184.25Q670 184.25 671.39 185.63Q672.78 187.01 672.78 189.53L672.78 192.55Q672.78 195.05 671.38 196.44Q669.98 197.83 667.60 197.83M667.60 195.91Q669.02 195.91 669.82 195.12Q670.62 194.33 670.62 192.79L670.62 189.29Q670.62 187.75 669.82 186.96Q669.02 186.17 667.60 186.17Q666.21 186.17 665.39 186.96Q664.58 187.75 664.58 189.29L664.58 192.79Q664.58 194.33 665.39 195.12Q666.21 195.91 667.60 195.91" fill="white" fill-opacity="0.7"/>
<path d="M679.65 197.64L677.49 197.64L677.49 184.44L679.65 184.44L679.65 186.96L679.70 186.96Q679.86 185.69 680.78 184.94Q681.69 184.20 683.22 184.20Q685.29 184.20 686.40 185.44Q687.52 186.67 687.52 188.95L687.52 190.08L685.36 190.08L685.36 188.95Q685.36 186.07 682.55 186.07Q681.14 186.07 680.39 186.89Q679.65 187.70 679.65 189.24" fill="white" fill-opacity="0.7"/>
<path d="M701.56 197.64L697.72 197.64Q696.09 197.64 695.10 196.69Q694.12 195.74 694.12 194.16L694.12 186.41L690.33 186.41L690.33 184.44L694.12 184.44L694.12 180.72L696.28 180.72L696.28 184.44L701.68 184.44L701.68 186.41L696.28 186.41L696.28 194.16Q696.28 194.83 696.68 195.25Q697.07 195.67 697.72 195.67L701.56 195.67" fill="white" fill-opacity="0.7"/>
<path d="M711.33 197.83L710.27 197.83Q708.06 197.83 706.85 196.84Q705.64 195.84 705.64 194.02L707.80 194.02Q707.80 194.93 708.45 195.44Q709.10 195.96 710.27 195.96L711.33 195.96Q712.53 195.96 713.19 195.43Q713.85 194.90 713.85 193.94Q713.85 192.24 712.29 192.02L708.64 191.50Q707.30 191.30 706.55 190.38Q705.81 189.46 705.81 187.94Q705.81 186.22 707 185.23Q708.18 184.25 710.27 184.25L711.33 184.25Q713.25 184.25 714.46 185.20Q715.67 186.14 715.77 187.68L713.58 187.68Q713.54 186.98 712.92 186.53Q712.31 186.07 711.33 186.07L710.27 186.07Q709.17 186.07 708.54 186.58Q707.92 187.08 707.92 187.94Q707.92 189.34 709.19 189.53L712.60 190.01Q715.96 190.49 715.96 193.94Q715.96 195.79 714.75 196.81Q713.54 197.83 711.33 197.83" fill="white" fill-opacity="0.7"/>
<path d="M741.02 197.64L738.18 197.64L733.70 184.44L736.02 184.44L738.90 193.32Q739.17 194.11 739.36 194.84Q739.55 195.58 739.65 195.98Q739.77 195.58 739.94 194.84Q740.10 194.11 740.34 193.32L743.22 184.44L745.50 184.44" fill="white" fill-opacity="0.7"/>
<path d="M760.12 197.64L748.84 197.64L748.84 195.67L753.52 195.67L753.52 186.41L749.32 186.41L749.32 184.44L755.68 184.44L755.68 195.67L760.12 195.67L760.12 197.64M754.36 182.06Q753.57 182.06 753.11 181.66Q752.66 181.25 752.66 180.55Q752.66 179.83 753.11 179.41Q753.57 178.99 754.36 178.99Q755.15 178.99 755.61 179.41Q756.06 179.83 756.06 180.55Q756.06 181.25 755.61 181.66Q755.15 182.06 754.36 182.06" fill="white" fill-opacity="0.7"/>
<path d="M767.25 197.88Q765.21 197.88 764.01 196.74Q762.81 195.60 762.81 193.75Q762.81 192.53 763.36 191.62Q763.91 190.70 764.90 190.19Q765.88 189.67 767.15 189.67L771.23 189.67L771.23 188.64Q771.23 186.07 768.42 186.07Q767.18 186.07 766.41 186.53Q765.64 186.98 765.59 187.80L763.43 187.80Q763.55 186.24 764.88 185.22Q766.22 184.20 768.42 184.20Q770.82 184.20 772.11 185.35Q773.39 186.50 773.39 188.57L773.39 197.64L771.26 197.64L771.26 195.24L771.21 195.24Q771.02 196.46 769.98 197.17Q768.95 197.88 767.25 197.88M767.78 196.06Q769.36 196.06 770.30 195.29Q771.23 194.52 771.23 193.20L771.23 191.35L767.39 191.35Q766.34 191.35 765.68 191.99Q765.02 192.62 765.02 193.68Q765.02 194.78 765.75 195.42Q766.48 196.06 767.78 196.06" fill="white" fill-opacity="0.7"/>
<path d="M796.74 197.64L792.21 197.64L792.21 180.12L796.74 180.12Q798.45 180.12 799.68 180.77Q800.92 181.42 801.60 182.59Q802.29 183.77 802.29 185.38L802.29 192.36Q802.29 193.97 801.60 195.16Q800.92 196.34 799.68 196.99Q798.45 197.64 796.74 197.64M794.37 182.04L794.37 195.72L796.74 195.72Q798.33 195.72 799.23 194.83Q800.13 193.94 800.13 192.36L800.13 185.38Q800.13 183.82 799.23 182.93Q798.33 182.04 796.74 182.04" fill="white" fill-opacity="0.7"/>
<path d="M817.72 197.64L806.44 197.64L806.44 195.67L811.12 195.67L811.12 186.41L806.92 186.41L806.92 184.44L813.28 184.44L813.28 195.67L817.72 195.67L817.72 197.64M811.96 182.06Q811.17 182.06 810.71 181.66Q810.26 181.25 810.26 180.55Q810.26 179.83 810.71 179.41Q811.17 178.99 811.96 178.99Q812.75 178.99 813.21 179.41Q813.66 179.83 813.66 180.55Q813.66 181.25 813.21 181.66Q812.75 182.06 811.96 182.06" fill="white" fill-opacity="0.7"/>
<path d="M826.36 201.96L822.66 201.96L822.66 199.99L826.38 199.99Q827.51 199.99 828.16 199.36Q828.81 198.72 828.81 197.64L828.81 196.44L828.86 194.28L828.78 194.28Q828.59 195.46 827.66 196.09Q826.72 196.73 825.30 196.73Q823.26 196.73 822.09 195.43Q820.91 194.14 820.91 191.88L820.91 189.10Q820.91 186.84 822.09 185.52Q823.26 184.20 825.30 184.20Q826.72 184.20 827.66 184.87Q828.59 185.54 828.78 186.72L828.83 186.72L828.83 184.44L830.97 184.44L830.97 197.64Q830.97 199.63 829.73 200.80Q828.50 201.96 826.36 201.96M825.95 194.93Q827.30 194.93 828.06 194.09Q828.83 193.25 828.83 191.76L828.83 189.24Q828.83 187.75 828.06 186.91Q827.30 186.07 825.95 186.07Q824.58 186.07 823.83 186.86Q823.07 187.66 823.07 189L823.07 192Q823.07 193.34 823.83 194.14Q824.58 194.93 825.95 194.93" fill="white" fill-opacity="0.7"/>
<path d="M846.52 197.64L835.24 197.64L835.24 195.67L839.92 195.67L839.92 186.41L835.72 186.41L835.72 184.44L842.08 184.44L842.08 195.67L846.52 195.67L846.52 197.64M840.76 182.06Q839.97 182.06 839.51 181.66Q839.06 181.25 839.06 180.55Q839.06 179.83 839.51 179.41Q839.97 178.99 840.76 178.99Q841.55 178.99 842.01 179.41Q842.46 179.83 842.46 180.55Q842.46 181.25 842.01 181.66Q841.55 182.06 840.76 182.06" fill="white" fill-opacity="0.7"/>
<path d="M860.80 197.64L850.72 197.64L850.72 180.12L852.88 180.12L852.88 195.67L860.80 195.67" fill="white" fill-opacity="0.7"/>
<path d="M869.20 197.83Q866.82 197.83 865.42 196.44Q864.02 195.05 864.02 192.55L864.02 189.53Q864.02 187.01 865.41 185.63Q866.80 184.25 869.20 184.25Q871.60 184.25 872.99 185.63Q874.38 187.01 874.38 189.53L874.38 192.55Q874.38 195.05 872.98 196.44Q871.58 197.83 869.20 197.83M869.20 195.91Q870.62 195.91 871.42 195.12Q872.22 194.33 872.22 192.79L872.22 189.29Q872.22 187.75 871.42 186.96Q870.62 186.17 869.20 186.17Q867.81 186.17 866.99 186.96Q866.18 187.75 866.18 189.29L866.18 192.79Q866.18 194.33 866.99 195.12Q867.81 195.91 869.20 195.91" fill="white" fill-opacity="0.7"/>
<path d="M883.79 197.88Q881.39 197.88 879.95 196.54Q878.51 195.19 878.51 192.84L878.51 189.24Q878.51 186.89 879.95 185.54Q881.39 184.20 883.79 184.20Q886.07 184.20 887.48 185.42Q888.88 186.65 888.95 188.76L886.79 188.76Q886.72 187.49 885.93 186.80Q885.14 186.12 883.79 186.12Q882.38 186.12 881.52 186.92Q880.67 187.73 880.67 189.22L880.67 192.84Q880.67 194.33 881.52 195.14Q882.38 195.96 883.79 195.96Q885.14 195.96 885.93 195.26Q886.72 194.57 886.79 193.32L888.95 193.32Q888.88 195.43 887.48 196.66Q886.07 197.88 883.79 197.88" fill="white" fill-opacity="0.7"/>
<path d="M895.29 197.64L893.13 197.64L893.13 180.12L895.29 180.12L895.29 189.89L897.81 189.89L901.50 184.44L903.98 184.44L899.73 190.73L904.22 197.64L901.70 197.64L897.86 191.76L895.29 191.76" fill="white" fill-opacity="0.7"/>
<path d="M912.40 197.88Q910.07 197.88 908.64 196.48Q907.22 195.07 907.22 192.60L907.22 189.48Q907.22 187.01 908.64 185.60Q910.07 184.20 912.40 184.20Q913.96 184.20 915.12 184.82Q916.29 185.45 916.94 186.58Q917.58 187.70 917.58 189.24L917.58 191.59L909.33 191.59L909.33 192.84Q909.33 194.30 910.17 195.16Q911.01 196.01 912.40 196.01Q913.60 196.01 914.38 195.54Q915.16 195.07 915.33 194.28L917.49 194.28Q917.27 195.94 915.88 196.91Q914.49 197.88 912.40 197.88M909.33 189.24L909.33 189.91L915.47 189.91L915.47 189.24Q915.47 187.68 914.67 186.83Q913.86 185.98 912.40 185.98Q910.94 185.98 910.13 186.83Q909.33 187.68 909.33 189.24" fill="white" fill-opacity="0.7"/>
<path d="M924.45 197.64L922.29 197.64L922.29 184.44L924.45 184.44L924.45 186.96L924.50 186.96Q924.66 185.69 925.58 184.94Q926.49 184.20 928.02 184.20Q930.09 184.20 931.20 185.44Q932.32 186.67 932.32 188.95L932.32 190.08L930.16 190.08L930.16 188.95Q930.16 186.07 927.35 186.07Q925.94 186.07 925.19 186.89Q924.45 187.70 924.45 189.24" fill="white" fill-opacity="0.7"/>
<path d="M941.20 197.88Q940.31 197.88 939.77 197.35Q939.23 196.82 939.23 195.98Q939.23 195.10 939.77 194.54Q940.31 193.99 941.20 193.99Q942.09 193.99 942.63 194.54Q943.17 195.10 943.17 195.98Q943.17 196.82 942.63 197.35Q942.09 197.88 941.20 197.88" fill="white" fill-opacity="0.7"/>
<path d="M76.11 136.06L66.42 136.06L84.56 65.98L97.14 65.98L115.18 136.06L105.49 136.06L101.07 117.82L80.53 117.82L76.11 136.06M87.54 88.92L82.45 109.95L99.15 109.95L94.16 89.02Q92.72 83.26 91.86 79.23Q90.99 75.20 90.80 73.76Q90.61 75.20 89.74 79.23Q88.88 83.26 87.54 88.92M137.55 136.06L128.05 136.06L128.05 65.98L150.80 65.98Q157.52 65.98 162.42 68.57Q167.31 71.16 170 75.82Q172.69 80.48 172.69 86.91Q172.69 93.24 170 97.90Q167.31 102.56 162.37 105.15Q157.42 107.74 150.80 107.74L137.55 107.74L137.55 136.06M137.55 74.43L137.55 99.29L150.80 99.29Q156.37 99.29 159.63 95.88Q162.90 92.48 162.90 86.91Q162.90 81.24 159.63 77.84Q156.37 74.43 150.80 74.43L137.55 74.43M225.10 136.06L186.90 136.06L186.90 127.42L201.20 127.42L201.20 74.62L186.90 74.62L186.90 65.98L225.10 65.98L225.10 74.62L210.80 74.62L210.80 127.42L225.10 127.42L225.10 136.06M263.98 137.02Q253.62 137.02 247.47 131.60Q241.33 126.17 241.33 116.67L250.83 116.67Q250.83 122.24 254.38 125.40Q257.94 128.57 263.98 128.57Q269.74 128.57 273.15 125.36Q276.56 122.14 276.56 116.76Q276.56 112.73 274.35 109.71Q272.14 106.68 268.11 105.63L257.74 102.84Q250.93 100.92 246.94 95.88Q242.96 90.84 242.96 83.93Q242.96 78.27 245.50 74Q248.05 69.72 252.66 67.37Q257.26 65.02 263.31 65.02Q269.46 65.02 274.11 67.37Q278.77 69.72 281.36 73.95Q283.95 78.17 283.95 83.74L274.54 83.74Q274.54 79.13 271.42 76.25Q268.30 73.37 263.31 73.37Q258.32 73.37 255.30 76.25Q252.27 79.13 252.27 83.74Q252.27 87.48 254.29 90.03Q256.30 92.57 259.95 93.63L270.61 96.51Q277.81 98.43 281.84 103.85Q285.87 109.28 285.87 116.76Q285.87 122.91 283.18 127.47Q280.50 132.03 275.55 134.52Q270.61 137.02 263.98 137.02M342.51 136.06L301.71 136.06L301.71 65.98L342.51 65.98L342.51 74.52L311.12 74.52L311.12 95.36L339.15 95.36L339.15 103.61L311.12 103.61L311.12 127.52L342.51 127.52L342.51 136.06M383.60 136.06L374.10 136.06L374.10 74.62L355.09 74.62L355.09 65.98L402.51 65.98L402.51 74.62L383.60 74.62L383.60 136.06M436.40 137.02Q426.51 137.02 421.18 131.55Q415.86 126.08 415.86 116.67L415.86 65.98L425.36 65.98L425.36 116.67Q425.36 122.24 428.10 125.40Q430.83 128.57 436.40 128.57Q441.87 128.57 444.70 125.40Q447.54 122.24 447.54 116.67L447.54 65.98L457.04 65.98L457.04 116.67Q457.04 126.17 451.71 131.60Q446.38 137.02 436.40 137.02M551.98 137.02Q542.29 137.02 536.58 131.60Q530.86 126.17 530.86 116.67L530.86 85.28Q530.86 75.87 536.58 70.44Q542.29 65.02 551.98 65.02Q561.58 65.02 567.30 70.49Q573.01 75.96 573.01 85.28L563.50 85.28Q563.50 79.61 560.43 76.54Q557.36 73.47 551.98 73.47Q546.51 73.47 543.44 76.54Q540.37 79.61 540.37 85.28L540.37 116.67Q540.37 122.43 543.44 125.50Q546.51 128.57 551.98 128.57Q557.36 128.57 560.43 125.50Q563.50 122.43 563.50 116.67L563.50 107.55L549.87 107.55L549.87 99.10L573.01 99.10L573.01 116.67Q573.01 126.08 567.30 131.55Q561.58 137.02 551.98 137.02M609.20 137.02Q599.60 137.02 594.03 131.45Q588.46 125.88 588.46 115.71L588.46 86.24Q588.46 76.16 594.03 70.59Q599.60 65.02 609.20 65.02Q618.80 65.02 624.37 70.54Q629.94 76.06 629.94 86.24L629.94 115.71Q629.94 125.88 624.37 131.45Q618.80 137.02 609.20 137.02M609.20 128.57Q614.58 128.57 617.50 125.50Q620.43 122.43 620.43 116.67L620.43 85.28Q620.43 79.61 617.55 76.54Q614.67 73.47 609.20 73.47Q603.73 73.47 600.85 76.54Q597.97 79.61 597.97 85.28L597.97 116.67Q597.97 122.43 600.90 125.50Q603.82 128.57 609.20 128.57M673.14 136.06L660.37 136.06L642.42 65.98L652.21 65.98L663.82 113.21Q664.98 117.72 665.79 121.90Q666.61 126.08 666.99 128.28Q667.28 126.08 668.19 121.85Q669.10 117.63 670.16 113.12L681.39 65.98L691.18 65.98L673.14 136.06M782.38 137.02Q772.69 137.02 766.98 131.60Q761.26 126.17 761.26 116.67L761.26 85.28Q761.26 75.87 766.98 70.44Q772.69 65.02 782.38 65.02Q791.98 65.02 797.70 70.49Q803.41 75.96 803.41 85.28L793.90 85.28Q793.90 79.61 790.83 76.54Q787.76 73.47 782.38 73.47Q776.91 73.47 773.84 76.54Q770.77 79.61 770.77 85.28L770.77 116.67Q770.77 122.43 773.84 125.50Q776.91 128.57 782.38 128.57Q787.76 128.57 790.83 125.50Q793.90 122.43 793.90 116.67L793.90 107.55L780.27 107.55L780.27 99.10L803.41 99.10L803.41 116.67Q803.41 126.08 797.70 131.55Q791.98 137.02 782.38 137.02M826.35 136.06L817.33 136.06L817.33 65.98L830.77 65.98L839.41 96.22L848.43 65.98L861.97 65.98L861.97 136.06L852.85 136.06L852.85 103.90Q852.85 98.81 853.04 92.62Q853.23 86.43 853.57 80.24Q853.90 74.04 854.29 69.05L843.34 104.96L835.28 104.96L824.72 69.92Q825.58 76.92 825.97 85.52Q826.35 94.11 826.35 103.90L826.35 136.06M897.97 137.02Q888.27 137.02 882.56 131.60Q876.85 126.17 876.85 116.67L876.85 85.28Q876.85 75.87 882.56 70.44Q888.27 65.02 897.97 65.02Q907.57 65.02 913.28 70.49Q918.99 75.96 918.99 85.28L909.49 85.28Q909.49 79.61 906.42 76.54Q903.34 73.47 897.97 73.47Q892.50 73.47 889.42 76.54Q886.35 79.61 886.35 85.28L886.35 116.67Q886.35 122.43 889.42 125.50Q892.50 128.57 897.97 128.57Q903.34 128.57 906.42 125.50Q909.49 122.43 909.49 116.67L918.99 116.67Q918.99 126.08 913.28 131.55Q907.57 137.02 897.97 137.02M944.05 136.06L934.54 136.06L934.54 65.98L944.05 65.98L944.05 95.55L965.55 95.55L965.55 65.98L975.06 65.98L975.06 136.06L965.55 136.06L965.55 104.19L944.05 104.19" fill="url(#paint2_linear_0_1)"/>
<g id="Group 1">
<rect id="Rectangle 1" x="26" y="168" width="12" height="184" rx="5" fill="url(#paint3_linear_0_1)" fill-opacity="0.9"/>
</g>
<g id="Group 1_2">
<rect id="Rectangle 2" x="26" y="38" width="12" height="119" rx="5" fill="url(#paint4_linear_0_1)" fill-opacity="0.9"/>
</g>
<ellipse id="Ellipse 1" cx="148.5" cy="573" rx="215.5" ry="214" fill="url(#paint5_linear_0_1)" fill-opacity="0.4"/>
<rect id="Rectangle 3" x="1229" y="48" width="300" height="300" rx="25" fill="#FFFBFB" fill-opacity="0.9"/>
<g id="placeholder-logo"><g transform="translate(1229,48) translate(0.0,60.0) scale(1.2000)"><g fill="#666666">
  <path d="m88.05,27.65c-3.15,4 -3.2,51.2 -0.05,54.35c2.75,2.75 71.7,3.15 74.45,0.45c2.85,-2.9 2.3,-53.85 -0.65,-55.9c-1.95,-1.35 -7.15,-1.55 -36.95,-1.55l-34.7,0l-2.1,2.65zm69.45,3.35c0.65,0 1,8.6 1,23.75l0,23.75l-33,0l-33,0l-0.25,-23c-0.15,-12.6 -0.1,-23.45 0.15,-24.1c0.35,-0.85 8.9,-1.05 32.25,-0.75c17.55,0.2 32.3,0.35 32.85,0.35z"/>
  <path d="m99.15,37.3c-6.85,7.35 4.25,17.35 11.4,10.25c1.35,-1.35 2.45,-3.65 2.45,-5.05c0,-6.45 -9.35,-9.95 -13.85,-5.2z"/>
  <path d="m135,42.5c-0.7,0.85 -5.25,5.15 -10.1,9.6l-8.85,8.1l-3.2,-3.2l-3.15,-3.15l-6.35,6.3c-5.55,5.5 -6.35,6.75 -6.35,10.05l0,3.8l28.5,0l28.5,0l0,-8.6l0,-8.55l-8.15,-7.7c-9.35,-8.85 -9.15,-8.7 -10.85,-6.65zm7.25,15.2c0.95,0.9 1.75,2.9 1.75,4.45c6.35,-5.05 4.75,-7.15 4.9,-11.55c0.95,0 0,0 0,0l-6.65,7.1z"/>
  <path d="m53.65,110.75c0.1,4.8 0.45,8.65 0.75,8.5c0.35,-0.15 1.3,-0.25 2.1,-0.25c1.1,0 1.5,-1.2 1.5,-4.75l0,-4.75l3.25,5c4.9,7.5 6.2,6.75 6.55,-3.75c0.25,-8.15 0.15,-8.75 -1.7,-8.75c-1.65,0 -2.05,0.8 -2.3,4.75l-0.3,4.75l-2.8,-4.75c-4.85,-8.25 -7.25,-6.9 -7.05,4z"/>
  <path d="m91,108.9c0,9.65 0.3,10.1 6.1,10.1c5.8,0 7.15,-2.65 1.65,-3.2l-3.25,-0.3l-0.3,-6.75c-0.25,-5.95 -0.55,-6.75 -2.25,-6.75c-1.75,0 -1.95,0.7 -1.95,6.9z"/>
  <path d="m151,102.45c0,0.25 1,2.15 2.25,4.2c1.2,2.1 2.45,5.8 2.75,8.25c0.65,5.9 4,6.95 4,1.25c0.05,-2.1 1.25,-5.85 2.95,-8.9l2.9,-5.25l-2.5,0c-1.8,0 -2.8,0.85 -3.75,3.1l-1.3,3.05l-1.25,-3.05c-1.1,-2.6 -6.05,-4.8 -6.05,-2.65z"/>
  <path d="m191,107.45c0,9.05 3.4,8.85 4.25,-0.2c0.45,-5 0.35,-5.25 -1.9,-5.25c-2.2,0 -2.35,0.4 -2.35,5.45z"/>
  <path d="m180.8,104.75c-1.3,5.35 0.65,13.6 3.45,14.35c2.3,0.6 2.75,0.4 2.75,-1.2c0,-1.05 -0.45,-1.9 -1,-1.9c-0.55,0 -1,-1.6 -1,-3.5c0,-1.95 0.45,-3.5 1,-3.5c0.55,0 1,-0.7 1,-1.5c0,-0.85 -0.45,-1.5 -1,-1.5c-0.55,0 -1,-0.7 -1,-1.5c0,-2.1 -3.65,-1.9 -4.2,0.25z"/>
  <path d="m71.55,106.55c-2.2,2.25 -2.05,9.7 0.3,11.8c4.5,4.1 10.15,0.75 10.15,-6.1c0,-4.85 -2,-7.25 -6,-7.25c-1.55,0 -3.55,0.7 -4.45,1.55zm6.25,5.8c0.25,3.05 0,3.65 -1.6,3.65c-2.3,0 -3.25,-2.65 -2.05,-5.85c1.25,-3.35 3.3,-2.1 3.65,2.2z"/>
  <path d="m105.75,106.1c-2.5,1.45 -2.45,9.95 0.1,12.25c4.3,3.9 10.15,0.35 10.15,-6.2c0,-6 -5.15,-9.05 -10.25,-6.05zm6.05,6.25c0.25,3.05 0,3.65 -1.6,3.65c-2.3,0 -3.25,-2.65 -2.05,-5.85c1.25,-3.35 3.3,-2.1 3.65,2.2z"/>
  <path d="m119.2,106.2c-3.8,3.8 -0.4,12.55 4.4,11.35c1.9,-0.45 2.45,-0.3 2.15,0.65c-0.25,0.7 -1.55,1.2 -2.85,1.1c-4.05,-0.3 -5.35,0.45 -3.85,2.25c0.85,1.05 2.6,1.45 5.35,1.25l4.1,-0.3l0.3,-8.75l0.3,-8.75l-4.35,0c-2.4,0 -4.9,0.55 -5.55,1.2zm6.6,4.45c0.4,2.85 -2.15,4.85 -3.75,2.95c-0.9,-1.1 -0.9,-2 -0.05,-3.6c1.35,-2.5 3.4,-2.15 3.8,0.65z"/>
  <path d="m133.55,106.55c-2.2,2.25 -2.05,9.7 0.3,11.8c4.5,4.1 10.15,0.75 10.15,-6.1c0,-4.85 -2,-7.25 -6,-7.25c-1.55,0 -3.55,0.7 -4.45,1.55zm6.25,5.8c0.25,3.05 0,3.65 -1.6,3.65c-2.3,0 -3.25,-2.65 -2.05,-5.85c1.25,-3.35 3.3,-2.1 3.65,2.2z"/>
  <path d="m167.65,106.85c-3.9,4.3 -0.75,13.15 4.7,13.15c2.4,0 5.65,-2.75 5.65,-4.85c0,-1.4 -2.65,-1.55 -3.5,-0.15c-0.95,1.55 -4.5,1.15 -4.5,-0.5c0,-1.1 1.1,-1.5 4,-1.5c3.15,0 4,-0.35 4,-1.8c0,-5.3 -6.85,-8.25 -10.35,-4.35z"/>
  <path d="m191,117.5c0,2.15 0.4,2.6 2.25,2.3c1.5,-0.2 2.25,-1 2.25,-2.3c0,-1.3 -0.75,-2.1 -2.25,-2.3c-1.85,-0.3 -2.25,0.15 -2.25,2.3z"/>
 </g></g></g>
</g>
<defs>
<linearGradient id="paint0_linear_0_1" x1="0" y1="198" x2="1584" y2="198" gradientUnits="userSpaceOnUse">
<stop stop-color="#3D052C"/>
<stop offset="1"/>
</linearGradient>
<linearGradient id="paint1_linear_0_1" x1="323" y1="-224" x2="323" y2="352" gradientUnits="userSpaceOnUse">
<stop stop-color="#28F6F2" stop-opacity="0.4"/>
<stop offset="1" stop-color="#17908E" stop-opacity="0.7"/>
</linearGradient>
<linearGradient id="paint2_linear_0_1" x1="148.5" y1="38" x2="148.5" y2="140" gradientUnits="userSpaceOnUse">
<stop stop-color="white"/>
<stop offset="1" stop-color="#999999"/>
</linearGradient>
<linearGradient id="paint3_linear_0_1" x1="38" y1="260" x2="26" y2="260" gradientUnits="userSpaceOnUse">
<stop stop-color="#D9D9D9"/>
<stop offset="1" stop-color="#737373"/>
</linearGradient>
<linearGradient id="paint4_linear_0_1" x1="38" y1="97.5" x2="26" y2="97.5" gradientUnits="userSpaceOnUse">
<stop stop-color="#D9D9D9"/>
<stop offset="1" stop-color="#737373"/>
</linearGradient>
<linearGradient id="paint5_linear_0_1" x1="27.5" y1="434.5" x2="148.5" y2="787" gradientUnits="userSpaceOnUse">
<stop stop-color="#2E21BC"/>
<stop offset="1" stop-color="#150F56"/>
</linearGradient>
<clipPath id="clip0_0_1">
<rect width="1584" height="396" fill="white"/>
</clipPath>
</defs>
</svg>
